<svg id="eYAlQ5J76vm1" xmlns="http://www.w3.org/2000/svg" xmlns:xlink="http://www.w3.org/1999/xlink" viewBox="0 0 800 420" shape-rendering="geometricPrecision" text-rendering="geometricPrecision" project-id="3780276cdd574547bac86793a25a6875" export-id="abc0ebf775d447838be694700365ed09" cached="false"><g transform="translate(-240.5-103.539993)"><path d="M271.5,226.5v181.08" fill="none" fill-rule="evenodd" stroke="#1a73e8" stroke-width="53.3333" stroke-linecap="round" stroke-miterlimit="8"/><path d="M271.503,313.609c-.339-41.696,33.412-75.77,75.384-76.107c41.972-.336,76.272,33.193,76.611,74.889.001.203.002.406.002.609" fill="none" fill-rule="evenodd" stroke="#1a73e8" stroke-width="53.3333" stroke-linecap="round" stroke-miterlimit="8"/><path d="M423.503,313.605c-.335-41.696,33.196-75.768,74.892-76.103c41.696-.334,75.768,33.197,76.103,74.893.001.202.002.403.002.605" fill="none" fill-rule="evenodd" stroke="#1a73e8" stroke-width="53.3333" stroke-linecap="round" stroke-miterlimit="8"/><path d="M0,0l.002415,94.4882" transform="matrix(-1 0 0 1 423.502 313.5)" fill="none" fill-rule="evenodd" stroke="#1a73e8" stroke-width="53.3333" stroke-linecap="round" stroke-miterlimit="8"/><path d="M574.5,313.5v94.488" fill="none" fill-rule="evenodd" stroke="#1a73e8" stroke-width="53.3333" stroke-linecap="round" stroke-miterlimit="8"/><path d="M640.5,313c0-41.697,33.803-75.5,75.5-75.5c41.698,0,75.5,33.803,75.5,75.5c0,41.698-33.802,75.5-75.5,75.5-41.697,0-75.5-33.802-75.5-75.5Z" fill="none" fill-rule="evenodd" stroke="#1a73e8" stroke-width="53.3333" stroke-miterlimit="8"/><path d="M791.5,132.5v181.08" fill="none" fill-rule="evenodd" stroke="#1a73e8" stroke-width="53.3333" stroke-linecap="round" stroke-miterlimit="8"/><path d="M857.5,313c0-41.697,34.026-75.5,76-75.5s76,33.803,76,75.5c0,41.698-34.026,75.5-76,75.5s-76-33.802-76-75.5Z" fill="none" fill-rule="evenodd" stroke="#1a73e8" stroke-width="53.3333" stroke-miterlimit="8"/><path d="M857.5,313.5v181.08" fill="none" fill-rule="evenodd" stroke="#1a73e8" stroke-width="53.3333" stroke-linecap="round" stroke-miterlimit="8"/></g></svg>
